<?xml version="1.0" standalone="no"?>
<!DOCTYPE svg PUBLIC "-//W3C//DTD SVG 20010904//EN"
 "http://www.w3.org/TR/2001/REC-SVG-20010904/DTD/svg10.dtd">
<svg version="1.0" xmlns="http://www.w3.org/2000/svg"
 width="229.000000pt" height="224.000000pt" viewBox="0 0 229.000000 224.000000"
 preserveAspectRatio="xMidYMid meet">

<g transform="translate(0.000000,224.000000) scale(0.100000,-0.100000)"
fill="#000000" stroke="none">
<path d="M1300 2230 c0 -5 11 -10 25 -10 14 0 25 5 25 10 0 6 -11 10 -25 10
-14 0 -25 -4 -25 -10z"/>
<path d="M985 2178 c-152 -11 -244 -35 -392 -104 -307 -141 -523 -406 -583
-711 -19 -94 -8 -371 17 -448 55 -167 136 -298 264 -425 l77 -77 -70 -12 c-66
-11 -168 -53 -168 -69 0 -4 30 -20 65 -36 36 -16 65 -33 65 -38 0 -6 -25 -38
-55 -71 -30 -34 -55 -65 -55 -68 0 -4 28 5 62 20 60 25 70 26 220 24 162 -3
208 5 208 33 0 19 37 17 185 -12 133 -26 374 -24 527 4 140 26 178 28 178 7 0
-31 39 -38 180 -31 145 8 201 0 273 -36 22 -11 41 -18 43 -15 2 2 -16 32 -41
67 -25 35 -45 69 -45 76 0 7 23 27 51 45 l52 33 -23 18 c-28 23 -112 47 -168
50 -24 1 -45 4 -47 8 -2 4 19 29 48 57 69 65 107 109 152 172 78 112 146 283
160 406 4 33 9 73 11 88 8 52 -16 237 -42 318 -48 152 -116 267 -226 384 -232
247 -560 369 -923 343z m20 -44 c9 -10 14 -25 12 -35 -3 -11 -1 -22 4 -25 5
-3 9 -16 9 -30 0 -28 -31 -44 -85 -44 -33 0 -33 0 -40 60 -9 78 -10 74 17 82
40 11 66 8 83 -8z m85 -39 c0 -52 1 -55 25 -55 21 0 25 5 25 29 0 41 18 83 33
78 15 -5 18 -124 3 -135 -6 -5 -39 -6 -73 -4 l-63 4 0 62 c0 68 4 76 32 76 15
0 18 -8 18 -55z m247 13 c7 -6 13 -19 13 -29 0 -24 -35 -26 -48 -3 -14 25 -47
13 -47 -16 0 -22 4 -25 37 -25 45 0 59 -12 34 -31 -24 -17 -77 -18 -99 -1 -38
29 -26 100 22 123 25 13 61 5 88 -18z m-458 -22 c15 -59 14 -72 -5 -90 -18
-19 -78 -21 -91 -3 -16 21 -43 99 -37 108 14 23 41 7 53 -31 21 -69 52 -67 34
3 -13 47 -10 57 16 57 14 0 22 -12 30 -44z m-145 -27 c16 -24 11 -48 -16 -67
-13 -9 -16 -20 -12 -38 5 -20 2 -24 -15 -24 -15 0 -28 14 -46 52 -31 64 -31
76 -2 88 39 16 75 11 91 -11z m764 5 c12 -8 22 -24 22 -35 0 -23 -13 -25 -34
-4 -25 25 -31 17 -7 -9 45 -48 3 -102 -56 -74 -32 15 -45 58 -17 58 9 0 23 -8
30 -17 7 -10 14 -13 14 -7 0 6 -9 19 -20 29 -24 22 -25 38 -4 59 20 20 43 20
72 0z m140 -70 c15 -10 22 -24 22 -44 0 -17 -3 -30 -6 -30 -16 0 -44 23 -44
35 0 22 -38 18 -50 -5 -13 -24 -5 -42 18 -39 36 3 52 -2 52 -15 0 -19 -34 -30
-66 -22 -14 4 -24 2 -24 -4 0 -5 5 -10 11 -10 6 0 36 -18 67 -41 38 -27 58
-36 61 -27 2 7 11 19 18 27 13 12 13 15 -2 24 -12 6 -22 4 -36 -9 -17 -15 -22
-16 -34 -3 -12 12 -8 20 30 62 25 26 51 47 59 47 24 0 29 -20 12 -39 -14 -16
-14 -20 -2 -30 11 -9 17 -8 29 4 20 19 36 19 44 -1 7 -19 -73 -104 -98 -104
-13 0 -8 -9 18 -35 19 -19 36 -35 38 -35 2 0 -2 13 -8 30 -10 27 -8 32 18 60
35 37 78 40 112 8 30 -28 30 -68 -2 -98 -20 -19 -32 -22 -68 -18 -44 5 -44 5
-27 -16 50 -59 61 -70 57 -61 -3 6 1 25 8 42 11 25 21 33 51 39 54 10 88 -11
92 -58 4 -49 -36 -82 -90 -75 -21 3 -38 2 -38 -1 1 -16 28 -41 36 -33 18 16
123 53 133 46 24 -14 8 -34 -39 -51 -44 -16 -49 -20 -44 -41 5 -18 2 -23 -14
-23 -20 0 -20 0 0 -62 64 -204 13 -486 -122 -664 -176 -233 -384 -321 -750
-317 -254 2 -404 41 -529 137 -255 196 -371 482 -315 776 8 46 24 107 35 136
49 130 194 302 326 387 126 82 229 118 394 139 167 20 373 -13 511 -83 43 -22
57 -24 40 -7 -15 15 -15 68 1 89 30 39 66 43 115 13z m-1062 -41 c63 -44 69
-63 19 -63 -29 0 -37 -5 -45 -25 -6 -15 -17 -25 -29 -25 -14 0 -22 13 -34 62
-16 65 -11 88 20 88 8 0 39 -17 69 -37z m-146 -70 c8 -23 23 -50 33 -61 16
-17 16 -20 2 -32 -13 -10 -18 -10 -33 2 -9 9 -28 19 -42 23 -14 4 -38 14 -54
23 -28 13 -29 15 -12 28 13 9 25 10 42 4 25 -10 30 -4 14 20 -10 16 6 43 24
37 6 -2 18 -22 26 -44z m-90 -83 c12 -12 18 -25 15 -30 -3 -4 8 -11 25 -15 16
-4 30 -10 30 -15 0 -16 -27 -29 -51 -23 -23 5 -24 5 -4 -10 19 -15 19 -17 3
-33 -15 -15 -20 -14 -78 31 l-61 47 35 34 c40 39 58 42 86 14z m-77 -110 c57
-36 63 -49 42 -89 -20 -39 -48 -40 -115 -6 -35 18 -48 29 -44 40 8 21 33 19
73 -6 25 -15 37 -17 45 -9 12 12 4 21 -54 53 -27 14 -30 20 -20 32 17 20 19
20 73 -15z m-93 -119 c0 -5 -7 -17 -16 -25 -22 -22 -7 -20 23 3 32 26 83 9 83
-28 0 -24 -37 -61 -60 -61 -24 0 -26 13 -4 35 9 9 14 18 12 21 -3 2 -13 -5
-23 -16 -48 -53 -118 12 -73 68 12 14 58 17 58 3z m1220 -1194 c0 -2 -10 -12
-22 -23 l-23 -19 19 23 c18 21 26 27 26 19z m-925 -17 c-3 -5 -11 -10 -16 -10
-6 0 -7 5 -4 10 3 6 11 10 16 10 6 0 7 -4 4 -10z m38 -17 c-7 -17 -5 -17 22 1
30 18 30 18 10 -2 -11 -11 -33 -23 -50 -27 l-30 -7 24 26 c29 31 33 32 24 9z
m124 -28 c-22 -45 -37 -57 -37 -30 0 20 -17 19 -29 -2 -5 -10 -13 -15 -16 -11
-4 4 -24 -1 -44 -12 -20 -10 -55 -21 -76 -24 l-40 -6 40 13 c22 8 67 28 100
45 38 20 62 27 66 20 4 -6 16 3 30 21 12 17 24 31 25 31 2 0 -7 -20 -19 -45z
m317 -2 c-31 -55 -51 -79 -59 -72 -5 6 72 119 81 119 3 0 -7 -21 -22 -47z
m805 -4 c-13 -23 -25 -37 -27 -30 -4 11 39 83 46 77 1 -2 -7 -23 -19 -47z
m-859 38 c0 -2 -10 -12 -22 -23 l-23 -19 19 23 c18 21 26 27 26 19z m-180 -33
c0 -8 -43 -43 -54 -44 -5 0 1 11 14 25 22 24 40 32 40 19z m90 1 c0 -7 -38
-45 -45 -45 -13 0 -3 30 13 39 19 11 32 14 32 6z m166 -27 c-11 -15 -16 -18
-16 -7 0 16 21 42 28 34 2 -2 -3 -14 -12 -27z m37 4 c-3 -12 -9 -22 -14 -22
-12 0 -11 7 2 32 13 25 20 19 12 -10z m61 -19 c-37 -51 -49 -63 -35 -36 15 29
14 33 -5 33 -8 0 -12 5 -9 10 4 6 11 8 16 4 6 -3 20 4 31 16 31 34 33 15 2
-27z m76 28 c0 -3 -5 -13 -10 -21 -12 -19 -35 2 -27 24 6 15 37 12 37 -3z
m110 9 c0 -3 -9 -14 -21 -23 -20 -18 -21 -18 -35 0 -13 17 -15 17 -29 -1 -19
-25 -29 -16 -11 10 10 13 25 19 55 19 22 0 41 -2 41 -5z m190 -20 c-6 -12 -14
-19 -17 -16 -4 3 -13 0 -22 -8 -18 -15 -90 -40 -97 -34 -2 3 13 10 35 16 21 7
44 19 51 27 7 8 19 15 27 15 7 0 16 7 20 15 3 9 8 14 10 11 3 -2 -1 -14 -7
-26z m38 5 c-10 -23 -28 -34 -28 -18 0 7 31 43 36 43 2 0 -2 -11 -8 -25z m35
0 c-16 -22 -33 -32 -33 -20 0 5 42 45 47 45 2 0 -4 -11 -14 -25z m54 2 c-12
-13 -26 -21 -31 -19 -5 3 1 13 13 24 33 26 45 22 18 -5z m46 -2 c-19 -25 -33
-32 -33 -16 0 9 38 41 48 41 1 0 -5 -11 -15 -25z m82 -15 c-10 -16 -25 -12
-19 5 4 8 1 15 -5 15 -7 0 -14 -7 -17 -15 -8 -19 -24 -20 -24 -2 0 22 42 36
58 20 7 -7 10 -17 7 -23z m-1051 6 c-3 -9 -10 -16 -15 -16 -6 0 -5 9 1 21 13
24 24 20 14 -5z m82 -13 c-11 -11 -19 6 -11 24 8 17 8 17 12 0 3 -10 2 -21 -1
-24z"/>
<path d="M950 2100 c0 -5 5 -10 10 -10 6 0 10 5 10 10 0 6 -4 10 -10 10 -5 0
-10 -4 -10 -10z"/>
<path d="M955 2050 c-3 -5 1 -10 9 -10 9 0 16 5 16 10 0 6 -4 10 -9 10 -6 0
-13 -4 -16 -10z"/>
<path d="M675 2030 c3 -5 10 -10 16 -10 5 0 9 5 9 10 0 6 -7 10 -16 10 -8 0
-12 -4 -9 -10z"/>
<path d="M884 1803 c-1 -43 -3 -127 -5 -188 -4 -105 -3 -112 23 -155 34 -57
83 -105 92 -91 4 6 2 20 -5 32 -7 15 -9 45 -5 88 20 198 20 216 -6 272 -24 52
-73 119 -86 119 -4 0 -8 -35 -8 -77z"/>
<path d="M1296 1836 c-9 -21 -40 -73 -70 -115 -29 -42 -63 -96 -76 -121 -30
-58 -37 -144 -16 -193 15 -38 36 -42 36 -8 0 22 59 120 105 173 46 54 69 132
62 209 -3 31 -9 65 -15 75 -9 16 -12 13 -26 -20z"/>
<path d="M1805 1767 c-25 -19 -13 -50 17 -45 17 2 23 10 23 27 0 30 -14 36
-40 18z"/>
<path d="M1082 1739 c-35 -90 -45 -139 -36 -170 10 -36 34 -51 34 -22 0 10 9
42 20 71 23 61 25 100 5 126 -14 18 -15 18 -23 -5z"/>
<path d="M512 1668 c19 -16 36 -47 92 -169 64 -142 120 -196 221 -215 l39 -7
-34 40 c-21 24 -49 79 -70 133 -39 105 -97 176 -172 210 -51 23 -102 28 -76 8z"/>
<path d="M745 1658 c3 -13 10 -45 15 -72 13 -60 35 -102 59 -116 25 -13 34
-13 25 1 -4 7 -13 43 -20 82 -10 51 -21 78 -41 99 -32 34 -45 36 -38 6z"/>
<path d="M1373 1615 c-61 -59 -89 -105 -79 -131 7 -19 133 104 141 138 14 54
0 53 -62 -7z"/>
<path d="M1660 1639 c-14 -11 -63 -39 -109 -60 -140 -67 -199 -114 -232 -184
-16 -35 -26 -95 -15 -95 2 0 18 13 34 28 17 16 66 43 109 61 142 60 215 133
238 239 8 38 8 38 -25 11z"/>
<path d="M1892 1638 c-17 -17 -15 -35 4 -42 22 -8 56 12 52 32 -4 21 -39 27
-56 10z"/>
<path d="M487 1437 c48 -63 90 -110 106 -119 31 -16 77 -27 77 -18 0 4 -28 37
-62 73 -46 48 -72 67 -97 71 -26 5 -31 3 -24 -7z"/>
<path d="M1650 1418 c-88 -22 -136 -42 -157 -66 -22 -26 -22 -51 0 -34 7 6 32
13 56 17 58 10 102 29 125 54 26 28 17 39 -24 29z"/>
<path d="M291 1339 c-23 -9 -22 -10 25 -34 27 -14 81 -50 119 -81 39 -31 88
-65 110 -76 51 -27 149 -35 194 -16 l35 14 -58 28 c-32 15 -86 53 -122 83 -94
80 -222 115 -303 82z"/>
<path d="M983 1300 c-71 -28 -128 -94 -151 -174 l-18 -61 -86 -9 c-73 -7 -87
-11 -91 -28 -3 -11 -14 -22 -25 -25 -17 -4 -20 -15 -23 -81 -2 -43 -2 -120 -1
-173 l4 -96 171 1 c147 0 183 -3 248 -21 72 -21 78 -21 130 -6 40 12 104 17
249 19 l195 2 3 154 c3 165 -1 198 -22 198 -8 0 -16 10 -18 22 -3 26 -32 35
-120 37 -74 1 -88 8 -88 40 0 35 -41 121 -71 148 -75 67 -194 89 -286 53z
m235 -245 c-3 -3 -25 -11 -48 -18 -24 -7 -45 -18 -47 -24 -3 -7 20 -4 59 9 50
16 90 21 191 21 71 0 132 -4 138 -10 6 -6 8 -78 7 -179 l-3 -169 -115 3 c-73
2 -146 -2 -200 -12 -106 -19 -124 -19 -230 0 -54 10 -125 15 -195 12 l-110 -3
-2 165 c-2 93 1 172 7 180 7 12 34 15 142 14 110 -1 143 -5 188 -23 30 -11 59
-21 65 -21 20 0 -19 26 -63 42 l-47 16 134 1 c74 1 132 -1 129 -4z"/>
<path d="M785 958 c-27 -5 -54 -14 -60 -20 -7 -7 0 -9 25 -4 98 20 171 27 228
21 42 -4 62 -3 62 4 0 14 -183 13 -255 -1z"/>
<path d="M1230 959 c-55 -11 -74 -18 -68 -25 3 -2 45 3 94 11 59 11 112 14
157 9 46 -4 67 -3 67 5 0 13 -182 13 -250 0z"/>
<path d="M815 920 c-64 -9 -95 -19 -95 -30 0 -5 15 -4 33 1 17 6 90 13 162 16
78 4 122 9 110 14 -25 9 -143 9 -210 -1z"/>
<path d="M1285 924 c-103 -21 -125 -27 -120 -34 3 -5 17 -5 33 1 15 6 86 14
157 17 79 3 120 8 105 13 -26 7 -141 9 -175 3z"/>
<path d="M822 879 c-77 -10 -102 -17 -102 -30 0 -6 8 -8 18 -5 48 15 134 26
216 27 63 1 82 4 61 9 -39 10 -114 10 -193 -1z"/>
<path d="M1295 883 c-71 -9 -135 -25 -135 -34 0 -5 10 -7 23 -4 92 21 123 25
207 26 66 1 86 4 65 9 -32 8 -110 10 -160 3z"/>
<path d="M786 829 c-27 -4 -54 -13 -60 -20 -8 -9 -4 -10 19 -5 95 19 187 27
238 21 41 -4 57 -3 52 4 -7 13 -175 13 -249 0z"/>
<path d="M1225 829 c-53 -12 -69 -18 -63 -24 3 -3 47 2 99 11 62 10 115 14
157 9 46 -5 62 -4 58 4 -9 13 -193 13 -251 0z"/>
<path d="M796 790 c-55 -10 -81 -18 -74 -25 3 -3 49 2 103 10 58 8 122 12 158
8 44 -5 58 -3 53 5 -8 14 -162 14 -240 2z"/>
<path d="M1260 793 c-48 -8 -102 -24 -97 -29 2 -2 47 2 100 10 53 8 123 12
158 9 45 -5 60 -3 55 5 -7 12 -159 15 -216 5z"/>
<path d="M830 753 c-50 -7 -110 -26 -110 -34 0 -4 15 -3 33 2 17 6 90 13 162
16 78 4 122 9 110 14 -20 8 -150 9 -195 2z"/>
<path d="M1254 749 c-28 -4 -61 -13 -75 -19 -21 -9 -18 -9 16 -5 22 3 96 8
165 12 78 4 116 9 100 14 -34 9 -143 9 -206 -2z"/>
<path d="M1082 725 c0 -16 2 -22 5 -12 2 9 2 23 0 30 -3 6 -5 -1 -5 -18z"/>
<path d="M1710 1291 c-157 -5 -180 -8 -223 -30 -26 -12 -59 -38 -72 -55 -29
-39 -32 -51 -7 -40 9 5 89 9 177 9 146 0 164 2 206 23 46 23 109 77 109 93 0
5 -3 8 -7 7 -5 -1 -87 -4 -183 -7z"/>
<path d="M388 1123 c-32 -8 -19 -18 66 -47 67 -24 90 -28 116 -20 39 11 40 27
3 35 -15 3 -42 13 -60 22 -30 16 -86 20 -125 10z"/>
<path d="M1590 1123 c-46 -18 -41 -27 22 -45 74 -20 134 -22 166 -5 22 13 20
14 -31 30 -62 20 -135 29 -157 20z"/>
<path d="M285 1760 c-3 -5 1 -10 9 -10 9 0 16 5 16 10 0 6 -4 10 -9 10 -6 0
-13 -4 -16 -10z"/>
<path d="M2283 1625 c0 -33 2 -45 4 -27 2 18 2 45 0 60 -2 15 -4 0 -4 -33z"/>
</g>
</svg>
